<?xml version="1.0" encoding="UTF-8"?>
<svg width="100pt" height="100pt" version="1.1" viewBox="0 0 100 100" xmlns="http://www.w3.org/2000/svg">
 <g>
  <path d="m35.938 87.09c-0.26172 0-0.51562-0.066406-0.74219-0.1875-0.55859-0.30078-1.1055-0.61719-1.6445-0.95312-0.35547-0.21484-0.60938-0.56641-0.70703-0.97266-0.097656-0.40234-0.027344-0.83203 0.19141-1.1836 0.21875-0.35547 0.57422-0.60938 0.98047-0.69922 0.40625-0.09375 0.83203-0.023438 1.1836 0.19922 0.48438 0.30078 0.98047 0.58594 1.4805 0.85938 0.62891 0.33984 0.94922 1.0664 0.77344 1.7578-0.17578 0.69531-0.80078 1.1797-1.5156 1.1797z"/>
  <path d="m29.688 82.59c-0.39844 0-0.78125-0.15234-1.0703-0.42578-3.7422-3.5156-6.5664-7.8945-8.2227-12.758-0.27734-0.81641 0.16016-1.7031 0.97656-1.9805 0.82031-0.27734 1.707 0.16016 1.9844 0.97656 1.4883 4.375 4.0312 8.3203 7.4023 11.484 0.46875 0.4375 0.62109 1.1172 0.38281 1.7148-0.23438 0.59375-0.8125 0.98828-1.4531 0.98828z"/>
  <path d="m86.988 53.219c-0.09375-0.55078-0.47266-1.0117-0.99609-1.2109-0.52344-0.19531-1.1133-0.09375-1.543 0.26172l-4.25 3.5156-2.0742-1.7188v-21.254c-0.007812-6.2148-2.4766-12.172-6.8711-16.566-4.3945-4.3945-10.352-6.8633-16.566-6.8711h-2.4062c0.62891-1.707 2.1641-2.9141 3.9688-3.125 0.86328 0 1.5625-0.69922 1.5625-1.5625s-0.69922-1.5625-1.5625-1.5625c-2.5508 0.074219-4.875 1.4844-6.1172 3.7188-1.6016-1.7852-3.6875-3.0625-6.0039-3.6719-0.83594-0.20703-1.6797 0.30078-1.8906 1.1367-0.21094 0.83594 0.29688 1.6797 1.1289 1.8945 0.042968 0.011719 3.4883 0.92578 4.6719 3.1719h-2.7266c-6.2148 0.007812-12.172 2.4766-16.566 6.8711-4.3945 4.3945-6.8633 10.352-6.8711 16.566v21.242l-2.0898 1.7305-4.2383-3.5078c-0.42969-0.35547-1.0195-0.45703-1.543-0.26172-0.52344 0.19922-0.90234 0.66016-0.99219 1.2109-1.7188 10.34 0.96484 20.926 7.4062 29.195 6.4453 8.2695 16.051 13.465 26.5 14.328 10.445 0.85938 20.773-2.6875 28.484-9.7891 7.7109-7.1016 12.098-17.105 12.098-27.586-0.003906-2.0625-0.17578-4.1211-0.51172-6.1562zm-61.988-20.406c0.007812-5.3867 2.1484-10.547 5.957-14.355 3.8086-3.8086 8.9688-5.9492 14.355-5.957h9.375c5.3867 0.007812 10.547 2.1484 14.355 5.957 3.8086 3.8086 5.9492 8.9688 5.957 14.355v18.668l-8.9141-7.3711c-0.57813-0.48047-1.4141-0.48047-1.9922 0l-14.105 11.676-14.109-11.676h0.003906c-0.57812-0.48047-1.418-0.48047-1.9961 0l-8.8867 7.3594zm25 60.938c-9.1133-0.011719-17.852-3.6367-24.297-10.078-6.4414-6.4453-10.066-15.184-10.078-24.297 0-0.95312 0.042969-1.9141 0.125-2.875l3.0391 2.5195v-0.003906c0.57813 0.48047 1.4141 0.48047 1.9922 0l14.105-11.676 14.109 11.676h-0.003906c0.57812 0.48047 1.4141 0.48047 1.9922 0l14.105-11.676 14.113 11.676h0.003906c0.57422 0.48047 1.4141 0.48047 1.9922 0l3.0547-2.5273c0.078125 0.96875 0.12109 1.9336 0.12109 2.8867-0.011719 9.1133-3.6367 17.852-10.078 24.297-6.4453 6.4414-15.184 10.066-24.297 10.078z"/>
  <path d="m50 43.75c-5.0938-0.050781-10.121-1.1719-14.758-3.2891-0.53125-0.26172-0.86719-0.80469-0.86719-1.3984s0.33594-1.1367 0.86719-1.3984c4.6367-2.1172 9.6641-3.2383 14.758-3.2891 5.0938 0.050781 10.121 1.1719 14.758 3.2891 0.53125 0.26172 0.86719 0.80469 0.86719 1.3984s-0.33594 1.1367-0.86719 1.3984c-4.6367 2.1172-9.6641 3.2383-14.758 3.2891zm-9.6992-4.6875c3.1367 1 6.4062 1.5273 9.6992 1.5625 3.293-0.03125 6.5625-0.55859 9.6992-1.5625-3.1367-1-6.4062-1.5273-9.6992-1.5625-3.293 0.03125-6.5625 0.55859-9.6992 1.5625z"/>
  <path d="m42.188 31.25c-1.8945 0-3.6055-1.1406-4.332-2.8945-0.72266-1.75-0.32422-3.7656 1.0156-5.1094 1.3438-1.3398 3.3594-1.7383 5.1094-1.0156 1.7539 0.72656 2.8945 2.4375 2.8945 4.332-0.003906 2.5859-2.1016 4.6836-4.6875 4.6875zm0-6.25c-0.63281 0-1.2031 0.37891-1.4453 0.96484-0.23828 0.58203-0.10547 1.2539 0.33984 1.7031 0.44922 0.44531 1.1211 0.57812 1.7031 0.33984 0.58594-0.24219 0.96484-0.8125 0.96484-1.4453 0-0.86328-0.69922-1.5625-1.5625-1.5625z"/>
  <path d="m57.812 31.25c-1.8945 0-3.6055-1.1406-4.332-2.8945-0.72266-1.75-0.32422-3.7656 1.0156-5.1094 1.3438-1.3398 3.3594-1.7383 5.1094-1.0156 1.7539 0.72656 2.8945 2.4375 2.8945 4.332-0.003906 2.5859-2.1016 4.6836-4.6875 4.6875zm0-6.25c-0.63281 0-1.2031 0.37891-1.4453 0.96484-0.23828 0.58203-0.10547 1.2539 0.33984 1.7031 0.44922 0.44531 1.1211 0.57812 1.7031 0.33984 0.58594-0.24219 0.96484-0.8125 0.96484-1.4453 0-0.86328-0.69922-1.5625-1.5625-1.5625z"/>
  <path d="m29.688 34.375c-0.41406 0-0.8125-0.16406-1.1055-0.45703s-0.45703-0.69141-0.45703-1.1055c-0.011719-3.7188 1.1953-7.3438 3.4375-10.312 0.51953-0.6875 1.4961-0.82812 2.1836-0.30859 0.69141 0.51562 0.83203 1.4961 0.31641 2.1836-1.8359 2.4297-2.8203 5.3945-2.8125 8.4375 0 0.41406-0.16406 0.8125-0.45703 1.1055s-0.69141 0.45703-1.1055 0.45703z"/>
  <path d="m31.25 39.062c0 2.082-3.125 2.082-3.125 0s3.125-2.082 3.125 0"/>
 </g>
</svg>
