<?xml version="1.0" encoding="UTF-8"?>
<svg width="100pt" height="100pt" version="1.1" viewBox="0 0 100 100" xmlns="http://www.w3.org/2000/svg">
 <path d="m47.918 12.59c0-2.5039 1.2969-3.2148 2.082-3.2148s2.082 0.71094 2.082 3.2148c0 0.91797-0.49609 2.5273-1.2891 3.6211-0.10547 0.14453-0.1875 0.30078-0.25 0.46094-0.17969-0.003906-0.36328-0.003906-0.54297-0.003906s-0.36328 0-0.54297 0.003906c-0.0625-0.16016-0.14453-0.31641-0.25-0.46094-0.79297-1.0938-1.2891-2.7031-1.2891-3.6211zm-3.0156 4.5c-0.47656-0.98047-0.83203-2.0469-1.0117-3.0508-0.035156-0.074218-0.066406-0.15234-0.09375-0.23437-0.80859-2.4492-2.3711-2.8633-3.0938-2.707-0.69531 0.15234-1.7734 1.0859-0.95312 3.5703 0.28125 0.85156 1.1758 2.1836 2.207 3.0859 0.95312-0.27344 1.9336-0.49219 2.9453-0.66406zm-9.2227-1.5352c0.38672 1.1797 1.1992 2.5234 2.2031 3.707-14.199 6.5859-21.215 24.598-21.215 41.141 0 24.875 14.922 31.266 33.332 31.266s33.332-6.3906 33.332-31.266c0-16.547-7.0195-34.566-21.23-41.148 1.0078-1.1797 1.8125-2.5195 2.2031-3.6992 1.2539-3.793 0.035156-7.5977-3.7188-8.4102-1.9375-0.42188-3.8125 0.125-5.3438 1.2852-1.0547-1.9297-2.8828-3.2227-5.2422-3.2227-2.3633 0-4.1953 1.2969-5.2461 3.2305-1.5352-1.168-3.4141-1.7188-5.3594-1.293-3.75 0.8125-4.9688 4.6172-3.7148 8.4102zm20.441-1.582c-0.17969 1.0273-0.53516 2.1172-1.0234 3.1172 1.0039 0.16797 1.9844 0.39062 2.9336 0.66016 1.0273-0.90234 1.9219-2.2305 2.2031-3.082 0.82031-2.4844-0.26172-3.418-0.95312-3.5703-0.72656-0.15625-2.2852 0.25781-3.0938 2.707-0.019531 0.058593-0.042969 0.11328-0.066406 0.16797zm14.887 68.105c4.7305-3.6914 8.1602-10.105 8.1602-21.676 0-9.7031-2.5938-19.797-7.5977-27.332-4.9297-7.4219-12.07-12.238-21.57-12.238s-16.641 4.8164-21.57 12.238c-5.0039 7.5352-7.5977 17.629-7.5977 27.332 0 11.57 3.4297 17.984 8.1602 21.676 4.9453 3.8555 12.145 5.4219 21.008 5.4219s16.062-1.5664 21.008-5.4219zm-31.426-36.246c1.1523 0 2.0859-0.92969 2.0859-2.082s-0.93359-2.082-2.0859-2.082c-1.1484 0-2.082 0.92969-2.082 2.082s0.93359 2.082 2.082 2.082zm20.836 0c1.1484 0 2.082-0.92969 2.082-2.082s-0.93359-2.082-2.082-2.082c-1.1523 0-2.0859 0.92969-2.0859 2.082s0.93359 2.082 2.0859 2.082zm-12.5 9.1992 2.082-2.0859 2.082 2.0859c0.78125 0.78125 1.8438 1.2188 2.9492 1.2188h0.58984l-5.6211 3.7461-5.6172-3.7461h0.58984c1.1016 0 2.1641-0.4375 2.9453-1.2188zm4.293-5.7695c-1.2227-1.2188-3.1992-1.2188-4.4219 0l-2.8164 2.8203h-3.3438c-3.2969 0-4.5938 4.2773-1.8477 6.1094l5.7969 3.8633-1.2188 8.5273c-0.48828 3.4297 2.1758 6.5 5.6406 6.5 3.4688 0 6.1289-3.0703 5.6406-6.5l-1.2188-8.5273 5.8008-3.8633c2.7422-1.832 1.4492-6.1094-1.8516-6.1094h-3.3398zm-3.7266 21.91 1.0078-7.0391c0.33594 0.039063 0.67969 0.039063 1.0195 0l1.0039 7.0391c0.13281 0.92188-0.58203 1.7461-1.5156 1.7461-0.92969 0-1.6445-0.82422-1.5156-1.7461z" fill-rule="evenodd"/>
</svg>
