<?xml version="1.0" encoding="UTF-8"?>
<svg width="100pt" height="100pt" version="1.1" viewBox="0 0 100 100" xmlns="http://www.w3.org/2000/svg">
 <g>
  <path d="m60.605 16.516c0.60547-0.60547 0.75781-1.5156 0.15234-2.2734-1.3633-1.8164-0.60547-3.4844 0.60547-4.5469 1.0625-0.91016 3.0312-1.3633 4.5469 0.30469s0.15234 2.8789 1.2109 4.0898c0.91016 1.0625 2.2734-0.15234 3.9375 1.668 1.5156 1.668 0.91016 3.4844-0.15234 4.5469s-2.8789 1.668-4.5469 0.15234c-0.60547-0.60547-1.668-0.60547-2.2734 0l-7.1172 6.8164c-1.9688-0.60547-3.9375-1.0625-6.0625-1.5156z"/>
  <path d="m60.453 72.426h-0.15234c-5.9102-0.60547-11.363-4.8477-13.637-10.605-3.4805-9.0938 0.45703-20.91 18.941-26.973-2.7266-1.668-5.7578-3.0312-8.7891-4.0898-23.633-7.8789-55.301 4.0898-55.301 26.969 0 6.5156 2.7266 12.574 8.0312 17.727h62.574c4.5469-4.5469 7.4258-10 7.8789-15.453-4.5469 7.5742-10.758 12.879-19.547 12.426zm-19.543-36.062c-13.637 0-25.91 6.3633-30 15.453-0.30469 0.91016-1.3633 1.2109-2.2734 0.91016-0.91016-0.30469-1.2109-1.3633-0.91016-2.2734 4.5469-10.305 18.184-17.426 33.184-17.426 0.91016 0 1.668 0.75781 1.668 1.668-0.003906 0.91016-0.76172 1.668-1.668 1.668z"/>
  <path d="m82.273 41.816v0c-0.91016-3.7891-4.0898-5.1523-7.8789-5.1523-4.8477 0-13.938 2.7266-20.453 8.6367-16.363 15 11.516 40.453 26.062 7.5742 2.1172-4.543 2.875-8.3281 2.2695-11.059zm-10 2.4258c-5.3047 1.0625-15.453 5.4531-16.062 11.211-0.15234 0.91016-0.75781 1.5156-1.668 1.5156h-0.15234c-0.91016-0.15234-1.668-0.91016-1.5156-1.8164 0.75781-8.7891 14.09-13.332 18.637-14.242 0.91016-0.15234 1.8164 0.45312 1.9688 1.3633 0.30859 0.91016-0.29688 1.8164-1.207 1.9688z"/>
  <path d="m5.3047 78.938h71.668c1.9688 0 2.8789 2.5742 1.2109 3.6367-3.1836 2.4258-6.2109 4.3945-10.152 8.4844l-53.789 0.003906c-4.0898-4.0898-6.9688-6.0625-10.152-8.332-1.6641-1.2148-0.75781-3.793 1.2148-3.793z"/>
  <path d="m98.184 31.211c-0.75781 1.668-2.8789 2.7266-4.6953 1.0625-0.60547-0.60547-1.668-0.60547-2.2734 0l-6.5156 6.0625c-0.75781-1.3633-1.8164-2.5742-3.0312-3.332l6.5156-6.0625c0.60547-0.60547 0.75781-1.668 0.15234-2.2734-0.91016-1.2109-0.75781-2.2734-0.30469-2.8789 0.91016-1.668 3.1836-2.5742 4.8477-0.75781 1.5156 1.668 0.15234 2.5742 1.2109 3.7891 0.91016 1.0625 2.2734 0 3.4844 1.5156 1.2148 1.0586 1.0625 2.2695 0.60938 2.875z"/>
 </g>
</svg>
