<svg xmlns="http://www.w3.org/2000/svg" width="204" height="272" viewBox="0 0 204 272"><g fill="none" fill-rule="evenodd"><path fill="#FFF" d="M102,272 C170,214 204,157.333333 204,102 C204,45.6669555 158.333044,0 102,0 C45.6669555,0 0,45.6669555 0,102 C0,157.333333 34,214 102,272 Z"/><path fill="#5D8009" fill-rule="nonzero" d="M102.000347,47.4799613 C104.729211,47.4799613 106.843577,48.975435 108.063434,51.2073109 C109.834524,49.8654327 112.003134,49.2329155 114.244032,49.7208586 C118.585828,50.6605898 119.995418,55.061076 118.545167,59.4480301 C118.093402,60.8124619 117.162692,62.3620641 115.997078,63.7264959 C132.432831,71.3391855 140.55153,92.1798198 140.55153,111.31795 C140.55153,140.088643 123.292862,147.479961 102,147.479961 C80.7071381,147.479961 63.4484698,140.088181 63.4484698,111.31795 C63.4484698,92.1844462 71.5631204,71.3517924 87.9855727,63.734592 C86.9137854,62.4709528 86.0306423,61.0495352 85.5493203,59.7651702 L85.4374845,59.4471048 L85.3585588,59.1997208 C84.0414703,54.8962519 85.4787224,50.642859 89.7341087,49.7208586 C91.9840275,49.2283817 94.1571485,49.8654327 95.9327488,51.2163323 C97.1480958,48.9799457 99.2669727,47.4799613 102.000347,47.4799613 Z M102.000463,65.5504417 C91.012837,65.5504417 82.7536123,71.1210522 77.0527695,79.7048167 C71.265298,88.41997 68.2653292,100.09438 68.2653292,111.316794 C68.2653292,124.698565 72.2320934,132.116947 77.7033526,136.387086 C83.4230479,140.846327 91.7501645,142.658013 102.001041,142.658013 C112.251917,142.658013 120.578224,140.846327 126.298729,136.387086 L126.297573,136.387086 C131.768832,132.117641 135.735596,124.699722 135.735596,111.316794 C135.735596,100.094264 132.735627,88.4197387 126.948156,79.7048167 C121.246503,71.1207053 112.988088,65.5504417 102.000463,65.5504417 Z M104.402335,98.2863698 L104.55711,98.4320101 L107.818815,101.693947 L111.681602,101.693947 C115.433459,101.693947 116.942496,106.472032 113.983046,108.647952 L113.823148,108.760031 L107.113988,113.228294 L108.523642,123.090902 C109.088406,127.057666 106.011756,130.608751 101.999769,130.608751 C98.0680187,130.608751 95.0277575,127.190405 95.4478041,123.314971 L95.4758949,123.090902 L96.8855494,113.228294 L90.1809003,108.760031 C87.0595432,106.677573 88.4544333,101.863696 92.1227778,101.698319 L92.3179356,101.693947 L96.1853485,101.693947 L99.4427747,98.4320101 C100.806434,97.0727004 102.98077,97.0241536 104.402335,98.2863698 Z M102.591713,115.631577 C102.296946,115.665462 101.999617,115.673933 101.705457,115.65699 L101.412567,115.631577 L100.246953,123.772945 C100.097869,124.839184 100.924612,125.79247 101.999884,125.79247 C103.032698,125.79247 103.83405,124.920276 103.767351,123.91131 L103.752815,123.772945 L102.591713,115.631577 Z M101.999884,102.692433 L99.5917207,105.104969 C98.7484262,105.948371 97.6217162,106.445388 96.4393441,106.507909 L96.1852097,106.514623 L95.5030054,106.514623 L101.999815,110.847333 L108.501135,106.514623 L107.818931,106.514623 C106.625667,106.514623 105.475575,106.073783 104.592883,105.280354 L104.407909,105.104969 L101.999884,102.692433 Z M89.9505071,89.6491962 C91.2832598,89.6491962 92.3630427,90.7244684 92.3630427,92.0572211 C92.3630427,93.3899738 91.2832483,94.465246 89.9505071,94.465246 C88.6222651,94.465246 87.5424822,93.3899738 87.5424822,92.0572211 C87.5424822,90.7244684 88.6222767,89.6491962 89.9505071,89.6491962 Z M114.049262,89.6491962 C115.377504,89.6491962 116.457286,90.7244684 116.457286,92.0572211 C116.457286,93.3899738 115.377492,94.465246 114.049262,94.465246 C112.716509,94.465246 111.636726,93.3899738 111.636726,92.0572211 C111.636726,90.7244684 112.71652,89.6491962 114.049262,89.6491962 Z M91.2475674,54.2922082 C90.4433773,54.4684035 89.1964668,55.5481517 90.1451963,58.4215892 C90.4704878,59.4064969 91.5051173,60.9471239 92.6977952,61.990717 C93.8001663,61.6744585 94.9341818,61.4214539 96.1043061,61.2226704 C95.5532015,60.0887012 95.1420677,58.8552766 94.9342628,57.6941737 C94.8936016,57.6083338 94.8574581,57.5179785 94.8258323,57.4231032 C93.8906234,54.5903777 92.0834366,54.1114329 91.2475674,54.2922082 Z M109.15616,57.4231379 C109.13357,57.4909061 109.106462,57.5541567 109.079355,57.6174107 C108.871557,58.8055432 108.460423,60.066113 107.895729,61.2227051 C109.056831,61.4169779 110.19087,61.6744932 111.288707,61.986241 C112.476875,60.9426016 113.511562,59.4064622 113.836796,58.4216239 C114.78556,55.5481864 113.534092,54.4683919 112.734424,54.2922429 C111.894091,54.1115254 110.09138,54.5904239 109.15616,57.4231379 Z M102.000231,52.2998279 C101.092191,52.2998279 99.5922064,53.1220492 99.5922064,56.0180404 C99.5920445,57.079792 100.165865,58.9410958 101.083007,60.2061763 C101.204993,60.3733385 101.299868,60.5540561 101.372156,60.7392959 C101.579984,60.7347782 101.792322,60.7347782 102.00015,60.7347782 C102.207978,60.7347782 102.420317,60.7347782 102.628145,60.7392959 C102.700432,60.5540561 102.795307,60.3733385 102.917293,60.2061763 C103.834482,58.9410958 104.408256,57.0797573 104.408256,56.0180404 C104.408256,53.1220955 102.908272,52.2998279 102.000231,52.2998279 Z"/></g></svg>