<svg xmlns="http://www.w3.org/2000/svg" width="204" height="272" viewBox="0 0 204 272"><g fill="none" fill-rule="evenodd"><path fill="#FFF" d="M102,272 C170,214 204,157.333333 204,102 C204,45.6669555 158.333044,0 102,0 C45.6669555,0 0,45.6669555 0,102 C0,157.333333 34,214 102,272 Z"/><path fill="#5D8009" fill-rule="nonzero" d="M109.997252,37.4799613 C111.102245,37.4799613 111.997242,38.3749582 111.997242,39.4799509 C111.997242,40.5849435 111.102245,41.4799404 109.997252,41.4799404 C107.769749,41.7402499 105.863015,43.1862346 105.007867,45.2482954 L104.917215,45.4799196 L107.997135,45.4799196 C115.951013,45.4899035 123.576574,48.6499511 129.201504,54.2748818 C134.709249,59.7819997 137.853729,67.2075014 137.991746,74.9825142 L137.996466,75.4792512 L137.996466,102.684229 L140.651429,104.884282 L146.0914,100.384337 C146.641413,99.9293382 147.39643,99.799342 148.06643,100.049338 C148.684879,100.284699 149.145709,100.805504 149.307329,101.438732 L149.341419,101.599281 C149.772444,104.203172 149.992441,106.838166 149.997441,109.478152 C149.997441,122.893762 144.381982,135.698048 134.512081,144.788048 C124.642053,153.878049 111.422282,158.418032 98.0527515,157.318031 C84.6781012,156.213397 72.3828693,149.563191 64.1329283,138.978287 C55.8880305,128.394022 52.4529892,114.844012 54.6530417,101.608881 C54.7680491,100.903938 55.2530386,100.313938 55.9230383,100.058937 C56.5415705,99.8281724 57.2324233,99.9211872 57.7676386,100.294732 L57.898068,100.393937 L63.3230637,104.883898 L65.9979938,102.668869 L65.9979938,75.4792512 C66.0079778,67.5253727 69.1680253,59.8998124 74.792956,54.2748818 C80.3000739,48.7671371 87.7255757,45.6226567 95.5005885,45.48464 L95.9973254,45.4799196 L99.4873552,45.4799196 C97.9723551,42.604901 93.5623532,41.434909 93.5073544,41.4199088 C92.4423744,41.1449662 91.7923681,40.064959 92.0623699,38.9949614 C92.3323205,37.9249894 93.4123277,37.274996 94.4823253,37.539993 C97.4473019,38.3200209 100.11724,39.9549564 102.167277,42.2400005 C103.757285,39.3799834 106.732245,37.5749611 109.997252,37.4799613 Z M121.310325,94.074961 L103.256019,109.020163 C102.562303,109.596724 101.578473,109.632759 100.848471,109.128268 L100.706016,109.020163 L100.711016,109.020163 L82.6515902,94.074961 L64.5972843,109.020163 C63.9035679,109.596724 62.9197493,109.632759 62.1897385,109.128268 L62.0472816,109.020163 L62.0472816,109.025163 L58.1572539,105.80022 C58.0522547,107.030165 57.9972547,108.260213 57.9972547,109.4802 C58.0126146,121.14478 62.6520784,132.330257 70.8970275,140.580198 C79.0090918,148.687606 89.9600284,153.309304 101.414188,153.475372 L101.995559,153.479961 L102.577911,153.475354 C113.837573,153.311773 124.611286,148.843096 132.680158,140.989429 L133.09509,140.580191 C141.339911,132.330634 145.979863,121.145156 145.994863,109.480193 C145.994863,108.565221 145.963929,107.64179 145.906274,106.714138 L145.839869,105.785236 L141.929873,109.020163 C141.236157,109.596724 140.247939,109.632759 139.521503,109.128268 L139.37987,109.020163 L139.374871,109.020163 L121.310325,94.074961 Z M83.0528169,140.093954 C83.6728201,140.478951 84.307812,140.843954 84.947847,141.193955 C85.7528476,141.628948 86.1628423,142.55894 85.9378451,143.443927 C85.7128478,144.333919 84.912852,144.953935 83.9978872,144.953935 C83.6627593,144.953935 83.337769,144.868936 83.0477609,144.713937 C82.3327695,144.32894 81.6327283,143.923938 80.9428119,143.493949 C80.4878127,143.218956 80.1628096,142.768948 80.0378182,142.248951 C79.9128192,141.733959 80.0028181,141.183958 80.2828217,140.733951 C80.5628203,140.278952 81.0178195,139.953949 81.5378168,139.838954 C82.0578141,139.718955 82.6028096,139.808954 83.0528169,140.093954 Z M67.8928319,121.033779 C69.797846,126.633749 73.052741,131.683707 77.3677265,135.733222 C77.9677234,136.293219 78.1627176,137.16323 77.8577208,137.928154 C77.5577159,138.688151 76.8177262,139.193146 75.9977625,139.193146 L75.9978009,139.193965 C75.4878003,139.193965 74.9978061,138.998971 74.627824,138.64897 C69.837833,134.149025 66.2228758,128.544063 64.1028229,122.318815 C63.7478295,121.273816 64.3078266,120.138858 65.3528132,119.783788 C66.4028045,119.428795 67.5377618,119.988792 67.8928319,121.033779 Z M107.996354,49.4805131 L95.9964166,49.4805131 C89.1021166,49.4904971 82.497095,52.2304508 77.6221124,57.1054334 C72.8579249,61.8688704 70.1328369,68.2854576 70.0018655,75.010094 L69.9969438,75.4797376 L69.9969438,99.3596771 L81.3718605,89.9396942 C82.0655769,89.3631332 83.0537943,89.3270982 83.7843444,89.831589 L83.9268552,89.9396942 L83.9218556,89.9396942 L101.981281,104.884896 L120.035587,89.9396942 C120.729304,89.3631332 121.713122,89.3270982 122.443133,89.831589 L122.58559,89.9396942 L133.995579,99.3746531 L133.995579,75.4797376 C133.985595,68.5854376 131.245641,61.980416 126.370658,57.1054334 C121.496444,52.2304508 114.891294,49.4905125 107.996354,49.4805131 Z M101.997025,77.4790872 C108.517055,77.5440865 114.951838,78.9791114 120.887167,81.6891132 C121.567163,82.0241131 121.997164,82.7191111 121.997164,83.4790559 C121.997164,84.2390008 121.567163,84.9340243 120.887167,85.2689986 C114.952222,87.9790005 108.517183,89.414001 101.997025,89.4790246 C95.4769953,89.4140253 89.0422129,87.9790005 83.1068838,85.2689986 C82.4268874,84.9339987 81.9968864,84.2390008 81.9968864,83.4790559 C81.9968864,82.7191111 82.4268874,82.0240875 83.1068838,81.6891132 C89.0418289,78.9791114 95.4768673,77.5441109 101.997025,77.4790872 Z M101.997025,81.4790663 C97.7820073,81.5190661 93.5970691,82.1940578 89.5821141,83.4790559 C93.5970691,84.7590492 97.7820073,85.4339897 101.997025,85.4790455 C106.212043,85.4390457 110.396982,84.764054 114.411937,83.4790559 C110.396982,82.1990626 106.212043,81.5241221 101.997025,81.4790663 Z M77.9971505,83.4784159 C77.9971505,86.143362 73.9971713,86.143362 73.9971713,83.4784159 C73.9971713,80.8134698 77.9971505,80.8134698 77.9971505,83.4784159 Z M81.1927434,61.8847749 C82.0777436,62.544765 82.2577362,63.7997729 81.5977461,64.6797683 C79.2478063,67.7897681 77.9877809,71.5846923 77.9977649,75.479712 C77.9977649,76.0097061 77.7877691,76.5197066 77.4127695,76.8947446 C77.0377699,77.2697827 76.5277693,77.47974 75.9977369,77.47974 C75.4678068,77.4790872 74.9578063,77.2690915 74.5827683,76.8940918 C74.2077302,76.5190922 73.9977729,76.0090917 73.9977729,75.4790592 C73.9827727,70.71902 75.5277489,66.0790442 78.39775,62.279768 C79.0627449,61.3997726 80.312748,61.2197799 81.1927434,61.8847749 Z M94.2927455,61.9342082 C96.5377258,62.8642002 97.9976862,65.054192 97.9976862,67.4791393 C97.9926865,70.7890741 95.3076522,73.4741161 91.9977175,73.479108 C89.5727701,73.479108 87.3827015,72.0191477 86.4527864,69.7741674 C85.5277864,67.534179 86.0377869,64.9542245 87.7527476,63.2341694 C89.4728026,61.5192344 92.0527572,61.009157 94.2927455,61.9342082 Z M114.291361,61.9342082 C116.536342,62.8642002 117.996302,65.054192 117.996302,67.4791393 C117.991302,70.7890741 115.306268,73.4741161 111.996333,73.479108 C109.571386,73.479108 107.381317,72.0191477 106.451402,69.7741674 C105.526402,67.534179 106.036403,64.9542245 107.751363,63.2341694 C109.471418,61.5192344 112.051373,61.009157 114.291361,61.9342082 Z M91.9976919,65.4791241 C91.1877249,65.4791241 90.4577575,65.964152 90.1477431,66.7141385 C89.8427463,67.459133 90.0127422,68.3191221 90.5827361,68.8940951 C91.1577347,69.464089 92.0177366,69.6340849 92.7626927,69.3290881 C93.512692,69.0190865 93.9976814,68.2890935 93.9976814,67.4791137 C93.9976814,66.3741211 93.1026845,65.4791241 91.9976919,65.4791241 Z M111.996308,65.4791241 C111.186341,65.4791241 110.456373,65.964152 110.146359,66.7141385 C109.841362,67.459133 110.011358,68.3191221 110.581352,68.8940951 C111.15635,69.464089 112.016352,69.6340849 112.761308,69.3290881 C113.511308,69.0190865 113.996297,68.2890935 113.996297,67.4791137 C113.996297,66.3741211 113.1013,65.4791241 111.996308,65.4791241 Z"/></g></svg>