<svg xmlns="http://www.w3.org/2000/svg" width="204" height="272" viewBox="0 0 204 272"><g fill="none" fill-rule="evenodd"><path fill="#FFF" d="M102,272 C170,214 204,157.333333 204,102 C204,45.6669555 158.333044,0 102,0 C45.6669555,0 0,45.6669555 0,102 C0,157.333333 34,214 102,272 Z"/><path fill="#5D8009" fill-rule="nonzero" d="M108.619185,78.7767004 C111.569981,79.8071866 114.52068,81.1341834 117.174868,82.7578855 C99.1817863,88.6598674 95.3488273,100.162259 98.7368939,109.01455 C100.907098,114.50906 106.051523,118.586007 111.673837,119.29917 L112.011729,119.337908 L112.160023,119.337908 C120.714305,119.780045 126.760454,114.616127 131.1866,107.243079 C130.757785,112.403812 128.096958,117.564636 123.882015,121.914818 L123.516943,122.285686 L62.6047526,122.285686 C57.4410296,117.269537 54.7868413,111.372033 54.7868413,105.029471 C54.7868413,82.7578855 85.6138182,71.1070443 108.619185,78.7767004 Z M125.730883,84.525365 C129.331533,84.525365 132.366824,85.7899238 133.333518,89.2813728 L133.400539,89.5408328 L133.454668,89.8096909 C133.93892,92.4452758 133.183195,96.0308064 131.190922,100.305744 C117.031227,132.311365 89.8926237,107.534333 105.821063,92.9326959 C112.163041,87.1795534 121.011925,84.525365 125.730883,84.525365 Z M122.925382,88.6588939 C118.499139,89.5447266 105.521019,93.9669785 104.783335,102.522662 C104.64279,103.358404 105.297496,104.064476 106.120131,104.262575 L106.258684,104.290823 L106.406978,104.290823 C107.292996,104.290823 107.882386,103.701462 108.03068,102.815473 C108.614244,97.2980668 118.195848,93.0703796 123.42066,91.9530572 L123.666114,91.9022096 C124.5529,91.754149 125.142291,90.8719765 124.841896,89.9859881 C124.693543,89.0999802 123.811371,88.5105997 122.925382,88.6588939 Z M93.136465,80.9859865 C78.5348276,80.9859865 65.2598949,87.9178706 60.8337492,97.9491955 C60.5409961,98.8351255 60.8337492,99.8656215 61.7197377,100.16222 C62.6056677,100.454973 63.6361636,100.16222 63.9327618,99.2762312 C67.9141416,90.427931 79.8612014,84.2336243 93.1360367,84.2336243 C94.0186765,84.2333907 94.7563649,83.495677 94.7601671,82.6096886 C94.7601671,81.723671 94.0224535,80.9859865 93.136465,80.9859865 Z M143.725308,71.2550952 C145.200657,72.8787972 143.873602,73.7609308 144.904049,74.9435661 C145.790038,75.9778488 147.117074,74.9435661 148.295912,76.4189156 C149.47845,77.4494018 149.330195,78.6281433 148.889109,79.2175628 C148.151298,80.8411772 146.086539,81.8716635 144.318378,80.2517578 C143.728988,79.6623676 142.694676,79.6623676 142.105354,80.2517578 L135.762792,86.1532529 C135.025107,84.8261588 133.994631,83.6474173 132.812093,82.9097425 L139.154655,77.0082474 C139.744045,76.4188572 139.892339,75.3845453 139.302949,74.7952232 C138.41696,73.6164817 138.565264,72.5821991 139.006351,71.9927796 C139.892339,70.3690775 142.105402,69.4869439 143.725308,71.2550952 Z M117.471817,58.570166 C118.947264,60.1938583 117.620111,61.3726096 118.650558,62.5513511 C119.536547,63.5856338 120.863583,62.4030569 122.483488,64.1750532 C123.958838,65.7987553 123.369477,67.5669162 122.335194,68.6011989 C121.300911,69.6354815 119.53275,70.224901 117.909048,68.7494931 C117.319658,68.1601029 116.285346,68.1601029 115.696024,68.7494931 L108.767839,75.3848666 C106.851326,74.7954763 104.934909,74.3505839 102.866344,73.9095171 L112.307987,64.9127377 C112.897377,64.3233474 113.045671,63.4373882 112.456281,62.6997135 C111.129187,60.9315525 111.866891,59.3078504 113.045671,58.2735678 C114.079954,57.3875794 115.99637,56.9464736 117.471817,58.570166 Z M58.4763246,125.676965 L128.241001,125.676965 C130.157515,125.676965 131.043445,128.182801 129.419743,129.217084 C126.320691,131.57846 123.373789,133.494877 119.537355,137.476159 L67.1768563,137.479961 C63.1956712,133.498776 60.3931302,131.578466 57.2944681,129.369238 C55.6745624,128.1867 56.5567836,125.676965 58.477006,125.676965 L58.4763246,125.676965 Z"/></g></svg>