<svg xmlns="http://www.w3.org/2000/svg" width="204" height="272" viewBox="0 0 204 272"><g fill="none" fill-rule="evenodd"><path fill="#FFF" d="M102,272 C170,214 204,157.333333 204,102 C204,45.6669555 158.333044,0 102,0 C45.6669555,0 0,45.6669555 0,102 C0,157.333333 34,214 102,272 Z"/><path fill="#5D8009" d="M96.4316365,40.5 C93.5736038,40.5 90.766912,42.8826813 87.2142573,45.8991931 C81.5366976,50.7196035 74.4709072,56.7189384 63.5003378,56.7189384 C52.5297684,56.7189384 45.4633024,50.7196035 39.7860804,45.8991931 C36.2332568,42.8826813 33.4269028,40.5 30.5683635,40.5 C29.9784498,40.5 29.5,40.9917829 29.5,41.5985236 C29.5,42.2052642 29.9784498,42.6970472 30.5683635,42.6970472 C32.6589849,42.6970472 35.3309069,44.9659863 38.4255468,47.5931699 C44.0536233,52.3717302 51.7615127,64 63.5003378,64 C77.5196105,64 80.6655913,54.3084727 88.574791,47.5931699 C91.6694309,44.9659863 94.3413529,42.6970472 96.4316365,42.6970472 C97.021719,42.6970472 97.5,42.2052642 97.5,41.5985236 C97.5,40.9917829 97.021719,40.5 96.4316365,40.5 Z M41.6768077,33.8202491 C48.1737434,33.8202491 53.459335,28.4125875 53.459335,21.76537 C53.459335,15.1181525 48.1737434,9.71029882 41.6768077,9.71029882 C35.179872,9.71029882 29.8942803,15.1181525 29.8942803,21.76537 C29.8942803,28.4125875 35.179872,33.8202491 41.6768077,33.8202491 Z M85.6221152,33.8202491 C92.1190509,33.8202491 97.4044548,28.4125875 97.4044548,21.76537 C97.4044548,15.1181525 92.1190509,9.71029882 85.6221152,9.71029882 C79.1251796,9.71029882 73.8397757,15.1181525 73.8397757,21.76537 C73.8397757,28.4125875 79.1251796,33.8202491 85.6221152,33.8202491 Z M116.129392,91.1078735 C108.806113,91.1078735 102.529661,94.591927 100.00368,99.5 C97.4775111,94.591927 91.2012466,91.1078735 83.8785311,91.1078735 C82.175325,91.1078735 80.5089288,91.2946427 78.8986864,91.6658754 C81.3779038,87.4954641 86.0613918,84.2758082 91.7584648,82.674627 C92.532786,82.4573059 93.3253242,82.2691917 94.1345772,82.112782 L94.1345772,79.6507713 L94.1345772,67.0129109 C94.1345772,66.3415408 93.6027126,65.7973736 92.946521,65.7973736 C92.2903293,65.7973736 91.7584648,66.3415408 91.7584648,67.0129109 L91.7584648,80.1705355 C86.9500863,81.4237341 82.7396799,83.7468208 79.6949808,86.8085299 C74.5620748,87.5152555 69.1003218,87.9925547 63.6496493,87.9925547 C58.2002914,87.9925547 52.7385384,87.5158319 47.606008,86.8098749 C44.5609333,83.7481658 40.3497756,81.4237341 35.5402703,80.1705355 L35.5402703,67.0129109 C35.5402703,66.3415408 35.0085936,65.7973736 34.3524019,65.7973736 C33.6960225,65.7973736 33.1643458,66.3415408 33.1643458,67.0129109 L33.1643458,79.6507713 L33.1643458,82.112782 C33.9730353,82.2691917 34.7661369,82.4573059 35.5402703,82.674627 C41.2375311,84.2758082 45.9208313,87.4954641 48.4000487,91.6658754 C46.7894307,91.2946427 45.1235979,91.1078735 43.4205796,91.1078735 C36.0967373,91.1078735 29.8210362,94.591927 27.2952431,99.5 C24.76945,94.591927 18.4935611,91.1078735 11.1695309,91.1078735 C9.46688832,91.1078735 7.80049211,91.2946427 6.19006187,91.6658754 C8.68599398,87.4674103 13.4173723,84.2381469 19.1653405,82.647726 C19.73101,82.4915085 20.30776,82.3537374 20.8920222,82.2292246 L20.8920222,79.7510733 L20.8920222,21.76537 C20.8920222,10.039643 30.2161785,0.5 41.6768077,0.5 C53.1376246,0.5 55.3912879,6.86975374 62.4614053,16.8536462 C62.8465939,17.3972369 62.9932698,18.0689914 63.6496493,18.0689914 C64.3058409,18.0689914 64.4585266,17.4014642 64.8377054,16.8536462 C72.1269916,6.31444187 74.1614861,0.5 85.6221152,0.5 C97.0827444,0.5 106.406713,10.039643 106.406713,21.76537 L106.406713,79.7510733 L106.406713,82.2257659 C106.967124,82.3445142 107.516642,82.4822854 108.059587,82.6308169 C113.840985,84.2137439 118.6026,87.450309 121.108485,91.6658754 C119.49768,91.2946427 117.831847,91.1078735 116.129392,91.1078735 Z M41.6768077,24.6691323 C43.2440427,24.6691323 44.514921,23.368857 44.514921,21.7651779 C44.514921,20.1616908 43.2440427,18.8614156 41.6768077,18.8614156 C40.1093848,18.8614156 38.8385065,20.1616908 38.8385065,21.7651779 C38.8385065,23.368857 40.1093848,24.6691323 41.6768077,24.6691323 Z M41.6768077,14.3606994 C45.667482,14.3606994 48.9140718,17.6823867 48.9140718,21.7651779 C48.9140718,25.847969 45.667482,29.1698485 41.6768077,29.1698485 C37.6863212,29.1698485 34.4395436,25.847969 34.4395436,21.7651779 C34.4395436,17.6823867 37.6863212,14.3606994 41.6768077,14.3606994 Z M85.6221152,24.6691323 C87.1893503,24.6691323 88.4604164,23.368857 88.4604164,21.7651779 C88.4604164,20.1616908 87.1893503,18.8614156 85.6221152,18.8614156 C84.0546924,18.8614156 82.7838141,20.1616908 82.7838141,21.7651779 C82.7838141,23.368857 84.0546924,24.6691323 85.6221152,24.6691323 Z M85.6221152,14.3606994 C89.6126017,14.3606994 92.8590037,17.6823867 92.8590037,21.7651779 C92.8590037,25.847969 89.6126017,29.1698485 85.6221152,29.1698485 C81.6318166,29.1698485 78.385039,25.847969 78.385039,21.7651779 C78.385039,17.6823867 81.6318166,14.3606994 85.6221152,14.3606994 Z M112.161442,81.7865123 C116.615808,83.6276882 120.404591,86.3208546 123.110114,89.6123744 C124.770688,89.708257 126.404031,89.8923361 128,90.1717214 C124.901589,86.2051807 119.542753,82.9872541 112.933322,80.925875 C112.675841,81.2121776 112.421365,81.5115464 112.161442,81.7865123 Z M18.5159099,42.3939568 C16.0162217,40.8844308 13.5291164,40.0414713 11.2540433,40.0414713 C10.3202755,40.0414713 9.4379663,40.1919243 8.63134265,40.488603 C1.92500407,42.9559939 1.33003696,55.1984108 7.33210575,67.221393 C10.0577237,72.6809349 13.7424632,77.3555463 17.6136934,80.5844254 C17.9119281,80.5060284 18.2127922,80.4310902 18.5159099,80.3599949 L18.5159099,42.3939568 Z M118.667768,40.488603 C117.860957,40.1919243 116.978272,40.0412791 116.044504,40.0412791 C113.769806,40.0412791 111.282326,40.8880817 108.782825,42.3976076 L108.782825,80.3594184 C109.085192,80.4307059 109.384553,80.505452 109.682225,80.5832725 C113.554582,77.3555463 117.24026,72.6824721 119.966629,67.221393 C125.969074,55.1984108 125.373919,42.9559939 118.667768,40.488603 Z M0,89.137381 C3.19550676,85.7057843 8.53631318,82.8692743 15.1380442,80.925875 C11.1161942,82.8592826 7.70583825,85.4873104 5.24314768,88.6253028 C3.4638805,88.719456 1.71222069,88.8862417 0,89.137381 Z" transform="translate(38 47.48)"/></g></svg>